<mxfile host="app.diagrams.net" agent="Mozilla/5.0 (Windows NT 10.0; Win64; x64) AppleWebKit/537.36 (KHTML, like Gecko) Chrome/137.0.0.0 Safari/537.36" version="27.1.4">
  <diagram name="第 1 页" id="kr3-BBDOnk6fpEw0zs4z">
    <mxGraphModel dx="2377" dy="1238" grid="1" gridSize="10" guides="1" tooltips="1" connect="1" arrows="1" fold="1" page="1" pageScale="1" pageWidth="827" pageHeight="1169" math="0" shadow="0">
      <root>
        <mxCell id="0" />
        <mxCell id="1" parent="0" />
        <mxCell id="AwGR9FeKWVJa82GFh3xE-36" value="" style="group" vertex="1" connectable="0" parent="1">
          <mxGeometry x="120" y="140" width="670" height="240" as="geometry" />
        </mxCell>
        <mxCell id="AwGR9FeKWVJa82GFh3xE-1" value="" style="ellipse;whiteSpace=wrap;html=1;aspect=fixed;strokeColor=#000000;fillColor=#FFFFFF;" vertex="1" parent="AwGR9FeKWVJa82GFh3xE-36">
          <mxGeometry y="200" width="40" height="40" as="geometry" />
        </mxCell>
        <mxCell id="AwGR9FeKWVJa82GFh3xE-2" value="" style="ellipse;whiteSpace=wrap;html=1;aspect=fixed;fillColor=#000000;strokeColor=#000000;" vertex="1" parent="AwGR9FeKWVJa82GFh3xE-36">
          <mxGeometry x="70" y="200" width="40" height="40" as="geometry" />
        </mxCell>
        <mxCell id="AwGR9FeKWVJa82GFh3xE-3" value="" style="ellipse;whiteSpace=wrap;html=1;aspect=fixed;fillColor=#FFFFFF;strokeColor=#000000;" vertex="1" parent="AwGR9FeKWVJa82GFh3xE-36">
          <mxGeometry x="140" y="200" width="40" height="40" as="geometry" />
        </mxCell>
        <mxCell id="AwGR9FeKWVJa82GFh3xE-4" value="" style="ellipse;whiteSpace=wrap;html=1;aspect=fixed;fillColor=#666666;" vertex="1" parent="AwGR9FeKWVJa82GFh3xE-36">
          <mxGeometry x="210" y="200" width="40" height="40" as="geometry" />
        </mxCell>
        <mxCell id="AwGR9FeKWVJa82GFh3xE-5" value="" style="ellipse;whiteSpace=wrap;html=1;aspect=fixed;fillColor=#FFFFFF;strokeColor=#000000;" vertex="1" parent="AwGR9FeKWVJa82GFh3xE-36">
          <mxGeometry x="280" y="200" width="40" height="40" as="geometry" />
        </mxCell>
        <mxCell id="AwGR9FeKWVJa82GFh3xE-6" value="" style="ellipse;whiteSpace=wrap;html=1;aspect=fixed;fillColor=#666666;" vertex="1" parent="AwGR9FeKWVJa82GFh3xE-36">
          <mxGeometry x="350" y="200" width="40" height="40" as="geometry" />
        </mxCell>
        <mxCell id="AwGR9FeKWVJa82GFh3xE-7" value="" style="ellipse;whiteSpace=wrap;html=1;aspect=fixed;fillColor=#FFFFFF;strokeColor=#000000;" vertex="1" parent="AwGR9FeKWVJa82GFh3xE-36">
          <mxGeometry x="420" y="200" width="40" height="40" as="geometry" />
        </mxCell>
        <mxCell id="AwGR9FeKWVJa82GFh3xE-8" value="" style="ellipse;whiteSpace=wrap;html=1;aspect=fixed;fillColor=#666666;" vertex="1" parent="AwGR9FeKWVJa82GFh3xE-36">
          <mxGeometry x="490" y="200" width="40" height="40" as="geometry" />
        </mxCell>
        <mxCell id="AwGR9FeKWVJa82GFh3xE-9" value="" style="ellipse;whiteSpace=wrap;html=1;aspect=fixed;fillColor=#000000;strokeColor=#000000;" vertex="1" parent="AwGR9FeKWVJa82GFh3xE-36">
          <mxGeometry x="560" y="200" width="40" height="40" as="geometry" />
        </mxCell>
        <mxCell id="AwGR9FeKWVJa82GFh3xE-10" value="" style="ellipse;whiteSpace=wrap;html=1;aspect=fixed;fillColor=#666666;" vertex="1" parent="AwGR9FeKWVJa82GFh3xE-36">
          <mxGeometry x="630" y="200" width="40" height="40" as="geometry" />
        </mxCell>
        <mxCell id="AwGR9FeKWVJa82GFh3xE-11" value="" style="whiteSpace=wrap;html=1;aspect=fixed;" vertex="1" parent="AwGR9FeKWVJa82GFh3xE-36">
          <mxGeometry x="80" width="40" height="40" as="geometry" />
        </mxCell>
        <mxCell id="AwGR9FeKWVJa82GFh3xE-12" value="" style="whiteSpace=wrap;html=1;aspect=fixed;" vertex="1" parent="AwGR9FeKWVJa82GFh3xE-36">
          <mxGeometry x="190" width="40" height="40" as="geometry" />
        </mxCell>
        <mxCell id="AwGR9FeKWVJa82GFh3xE-13" value="" style="whiteSpace=wrap;html=1;aspect=fixed;" vertex="1" parent="AwGR9FeKWVJa82GFh3xE-36">
          <mxGeometry x="300" width="40" height="40" as="geometry" />
        </mxCell>
        <mxCell id="AwGR9FeKWVJa82GFh3xE-14" value="" style="whiteSpace=wrap;html=1;aspect=fixed;" vertex="1" parent="AwGR9FeKWVJa82GFh3xE-36">
          <mxGeometry x="410" width="40" height="40" as="geometry" />
        </mxCell>
        <mxCell id="AwGR9FeKWVJa82GFh3xE-15" value="" style="whiteSpace=wrap;html=1;aspect=fixed;" vertex="1" parent="AwGR9FeKWVJa82GFh3xE-36">
          <mxGeometry x="520" width="40" height="40" as="geometry" />
        </mxCell>
        <mxCell id="AwGR9FeKWVJa82GFh3xE-16" value="" style="endArrow=none;html=1;rounded=0;entryX=0.5;entryY=1;entryDx=0;entryDy=0;exitX=0.5;exitY=0;exitDx=0;exitDy=0;" edge="1" parent="AwGR9FeKWVJa82GFh3xE-36" source="AwGR9FeKWVJa82GFh3xE-1" target="AwGR9FeKWVJa82GFh3xE-11">
          <mxGeometry width="50" height="50" relative="1" as="geometry">
            <mxPoint x="300" y="220" as="sourcePoint" />
            <mxPoint x="350" y="170" as="targetPoint" />
          </mxGeometry>
        </mxCell>
        <mxCell id="AwGR9FeKWVJa82GFh3xE-17" value="" style="endArrow=none;html=1;rounded=0;entryX=0.5;entryY=1;entryDx=0;entryDy=0;exitX=0.5;exitY=0;exitDx=0;exitDy=0;" edge="1" parent="AwGR9FeKWVJa82GFh3xE-36" source="AwGR9FeKWVJa82GFh3xE-1" target="AwGR9FeKWVJa82GFh3xE-12">
          <mxGeometry width="50" height="50" relative="1" as="geometry">
            <mxPoint x="30" y="210" as="sourcePoint" />
            <mxPoint x="110" y="50" as="targetPoint" />
          </mxGeometry>
        </mxCell>
        <mxCell id="AwGR9FeKWVJa82GFh3xE-18" value="" style="endArrow=none;html=1;rounded=0;entryX=0.5;entryY=1;entryDx=0;entryDy=0;exitX=0.5;exitY=0;exitDx=0;exitDy=0;" edge="1" parent="AwGR9FeKWVJa82GFh3xE-36" source="AwGR9FeKWVJa82GFh3xE-2" target="AwGR9FeKWVJa82GFh3xE-11">
          <mxGeometry width="50" height="50" relative="1" as="geometry">
            <mxPoint x="30" y="210" as="sourcePoint" />
            <mxPoint x="110" y="50" as="targetPoint" />
          </mxGeometry>
        </mxCell>
        <mxCell id="AwGR9FeKWVJa82GFh3xE-19" value="" style="endArrow=none;html=1;rounded=0;entryX=0.5;entryY=1;entryDx=0;entryDy=0;exitX=0.5;exitY=0;exitDx=0;exitDy=0;" edge="1" parent="AwGR9FeKWVJa82GFh3xE-36" source="AwGR9FeKWVJa82GFh3xE-2" target="AwGR9FeKWVJa82GFh3xE-13">
          <mxGeometry width="50" height="50" relative="1" as="geometry">
            <mxPoint x="40" y="220" as="sourcePoint" />
            <mxPoint x="120" y="60" as="targetPoint" />
          </mxGeometry>
        </mxCell>
        <mxCell id="AwGR9FeKWVJa82GFh3xE-20" value="" style="endArrow=none;html=1;rounded=0;exitX=0.5;exitY=0;exitDx=0;exitDy=0;entryX=0.5;entryY=1;entryDx=0;entryDy=0;" edge="1" parent="AwGR9FeKWVJa82GFh3xE-36" source="AwGR9FeKWVJa82GFh3xE-3" target="AwGR9FeKWVJa82GFh3xE-11">
          <mxGeometry width="50" height="50" relative="1" as="geometry">
            <mxPoint x="264" y="140" as="sourcePoint" />
            <mxPoint x="614" y="50" as="targetPoint" />
          </mxGeometry>
        </mxCell>
        <mxCell id="AwGR9FeKWVJa82GFh3xE-21" value="" style="endArrow=none;html=1;rounded=0;entryX=0.5;entryY=1;entryDx=0;entryDy=0;exitX=0.5;exitY=0;exitDx=0;exitDy=0;" edge="1" parent="AwGR9FeKWVJa82GFh3xE-36" source="AwGR9FeKWVJa82GFh3xE-3" target="AwGR9FeKWVJa82GFh3xE-14">
          <mxGeometry width="50" height="50" relative="1" as="geometry">
            <mxPoint x="40" y="220" as="sourcePoint" />
            <mxPoint x="120" y="60" as="targetPoint" />
          </mxGeometry>
        </mxCell>
        <mxCell id="AwGR9FeKWVJa82GFh3xE-22" value="" style="endArrow=none;html=1;rounded=0;entryX=0.5;entryY=1;entryDx=0;entryDy=0;exitX=0.5;exitY=0;exitDx=0;exitDy=0;" edge="1" parent="AwGR9FeKWVJa82GFh3xE-36" source="AwGR9FeKWVJa82GFh3xE-4" target="AwGR9FeKWVJa82GFh3xE-11">
          <mxGeometry width="50" height="50" relative="1" as="geometry">
            <mxPoint x="50" y="230" as="sourcePoint" />
            <mxPoint x="130" y="70" as="targetPoint" />
          </mxGeometry>
        </mxCell>
        <mxCell id="AwGR9FeKWVJa82GFh3xE-23" value="" style="endArrow=none;html=1;rounded=0;entryX=0.5;entryY=1;entryDx=0;entryDy=0;exitX=0.5;exitY=0;exitDx=0;exitDy=0;" edge="1" parent="AwGR9FeKWVJa82GFh3xE-36" source="AwGR9FeKWVJa82GFh3xE-4" target="AwGR9FeKWVJa82GFh3xE-15">
          <mxGeometry width="50" height="50" relative="1" as="geometry">
            <mxPoint x="60" y="240" as="sourcePoint" />
            <mxPoint x="140" y="80" as="targetPoint" />
          </mxGeometry>
        </mxCell>
        <mxCell id="AwGR9FeKWVJa82GFh3xE-24" value="" style="endArrow=none;html=1;rounded=0;entryX=0.5;entryY=1;entryDx=0;entryDy=0;exitX=0.5;exitY=0;exitDx=0;exitDy=0;" edge="1" parent="AwGR9FeKWVJa82GFh3xE-36" source="AwGR9FeKWVJa82GFh3xE-5" target="AwGR9FeKWVJa82GFh3xE-12">
          <mxGeometry width="50" height="50" relative="1" as="geometry">
            <mxPoint x="70" y="250" as="sourcePoint" />
            <mxPoint x="150" y="90" as="targetPoint" />
          </mxGeometry>
        </mxCell>
        <mxCell id="AwGR9FeKWVJa82GFh3xE-25" value="" style="endArrow=none;html=1;rounded=0;entryX=0.5;entryY=1;entryDx=0;entryDy=0;exitX=0.5;exitY=0;exitDx=0;exitDy=0;" edge="1" parent="AwGR9FeKWVJa82GFh3xE-36" source="AwGR9FeKWVJa82GFh3xE-5" target="AwGR9FeKWVJa82GFh3xE-13">
          <mxGeometry width="50" height="50" relative="1" as="geometry">
            <mxPoint x="80" y="260" as="sourcePoint" />
            <mxPoint x="160" y="100" as="targetPoint" />
          </mxGeometry>
        </mxCell>
        <mxCell id="AwGR9FeKWVJa82GFh3xE-26" value="" style="endArrow=none;html=1;rounded=0;entryX=0.5;entryY=1;entryDx=0;entryDy=0;exitX=0.5;exitY=0;exitDx=0;exitDy=0;" edge="1" parent="AwGR9FeKWVJa82GFh3xE-36" source="AwGR9FeKWVJa82GFh3xE-6" target="AwGR9FeKWVJa82GFh3xE-12">
          <mxGeometry width="50" height="50" relative="1" as="geometry">
            <mxPoint x="90" y="270" as="sourcePoint" />
            <mxPoint x="170" y="110" as="targetPoint" />
          </mxGeometry>
        </mxCell>
        <mxCell id="AwGR9FeKWVJa82GFh3xE-27" value="" style="endArrow=none;html=1;rounded=0;exitX=0.5;exitY=0;exitDx=0;exitDy=0;entryX=0.5;entryY=1;entryDx=0;entryDy=0;" edge="1" parent="AwGR9FeKWVJa82GFh3xE-36" source="AwGR9FeKWVJa82GFh3xE-6" target="AwGR9FeKWVJa82GFh3xE-14">
          <mxGeometry width="50" height="50" relative="1" as="geometry">
            <mxPoint x="100" y="280" as="sourcePoint" />
            <mxPoint x="440" y="60" as="targetPoint" />
          </mxGeometry>
        </mxCell>
        <mxCell id="AwGR9FeKWVJa82GFh3xE-28" value="" style="endArrow=none;html=1;rounded=0;entryX=0.5;entryY=1;entryDx=0;entryDy=0;exitX=0.5;exitY=0;exitDx=0;exitDy=0;" edge="1" parent="AwGR9FeKWVJa82GFh3xE-36" source="AwGR9FeKWVJa82GFh3xE-7" target="AwGR9FeKWVJa82GFh3xE-12">
          <mxGeometry width="50" height="50" relative="1" as="geometry">
            <mxPoint x="110" y="290" as="sourcePoint" />
            <mxPoint x="190" y="130" as="targetPoint" />
          </mxGeometry>
        </mxCell>
        <mxCell id="AwGR9FeKWVJa82GFh3xE-29" value="" style="endArrow=none;html=1;rounded=0;exitX=0.5;exitY=0;exitDx=0;exitDy=0;entryX=0.5;entryY=1;entryDx=0;entryDy=0;" edge="1" parent="AwGR9FeKWVJa82GFh3xE-36" source="AwGR9FeKWVJa82GFh3xE-7" target="AwGR9FeKWVJa82GFh3xE-15">
          <mxGeometry width="50" height="50" relative="1" as="geometry">
            <mxPoint x="120" y="300" as="sourcePoint" />
            <mxPoint x="550" y="70" as="targetPoint" />
          </mxGeometry>
        </mxCell>
        <mxCell id="AwGR9FeKWVJa82GFh3xE-30" value="" style="endArrow=none;html=1;rounded=0;entryX=0.5;entryY=1;entryDx=0;entryDy=0;exitX=0.5;exitY=0;exitDx=0;exitDy=0;" edge="1" parent="AwGR9FeKWVJa82GFh3xE-36" source="AwGR9FeKWVJa82GFh3xE-8" target="AwGR9FeKWVJa82GFh3xE-13">
          <mxGeometry width="50" height="50" relative="1" as="geometry">
            <mxPoint x="130" y="310" as="sourcePoint" />
            <mxPoint x="210" y="150" as="targetPoint" />
          </mxGeometry>
        </mxCell>
        <mxCell id="AwGR9FeKWVJa82GFh3xE-31" value="" style="endArrow=none;html=1;rounded=0;entryX=0.5;entryY=1;entryDx=0;entryDy=0;exitX=0.5;exitY=0;exitDx=0;exitDy=0;" edge="1" parent="AwGR9FeKWVJa82GFh3xE-36" source="AwGR9FeKWVJa82GFh3xE-8" target="AwGR9FeKWVJa82GFh3xE-14">
          <mxGeometry width="50" height="50" relative="1" as="geometry">
            <mxPoint x="140" y="320" as="sourcePoint" />
            <mxPoint x="220" y="160" as="targetPoint" />
          </mxGeometry>
        </mxCell>
        <mxCell id="AwGR9FeKWVJa82GFh3xE-32" value="" style="endArrow=none;html=1;rounded=0;entryX=0.5;entryY=1;entryDx=0;entryDy=0;exitX=0.5;exitY=0;exitDx=0;exitDy=0;" edge="1" parent="AwGR9FeKWVJa82GFh3xE-36" source="AwGR9FeKWVJa82GFh3xE-9" target="AwGR9FeKWVJa82GFh3xE-13">
          <mxGeometry width="50" height="50" relative="1" as="geometry">
            <mxPoint x="150" y="330" as="sourcePoint" />
            <mxPoint x="230" y="170" as="targetPoint" />
          </mxGeometry>
        </mxCell>
        <mxCell id="AwGR9FeKWVJa82GFh3xE-33" value="" style="endArrow=none;html=1;rounded=0;entryX=0.5;entryY=1;entryDx=0;entryDy=0;exitX=0.5;exitY=0;exitDx=0;exitDy=0;" edge="1" parent="AwGR9FeKWVJa82GFh3xE-36" source="AwGR9FeKWVJa82GFh3xE-9" target="AwGR9FeKWVJa82GFh3xE-15">
          <mxGeometry width="50" height="50" relative="1" as="geometry">
            <mxPoint x="160" y="340" as="sourcePoint" />
            <mxPoint x="240" y="180" as="targetPoint" />
          </mxGeometry>
        </mxCell>
        <mxCell id="AwGR9FeKWVJa82GFh3xE-34" value="" style="endArrow=none;html=1;rounded=0;entryX=0.5;entryY=1;entryDx=0;entryDy=0;exitX=0.5;exitY=0;exitDx=0;exitDy=0;" edge="1" parent="AwGR9FeKWVJa82GFh3xE-36" source="AwGR9FeKWVJa82GFh3xE-10" target="AwGR9FeKWVJa82GFh3xE-14">
          <mxGeometry width="50" height="50" relative="1" as="geometry">
            <mxPoint x="170" y="350" as="sourcePoint" />
            <mxPoint x="250" y="190" as="targetPoint" />
          </mxGeometry>
        </mxCell>
        <mxCell id="AwGR9FeKWVJa82GFh3xE-35" value="" style="endArrow=none;html=1;rounded=0;entryX=0.5;entryY=1;entryDx=0;entryDy=0;exitX=0.5;exitY=0;exitDx=0;exitDy=0;" edge="1" parent="AwGR9FeKWVJa82GFh3xE-36" source="AwGR9FeKWVJa82GFh3xE-10" target="AwGR9FeKWVJa82GFh3xE-15">
          <mxGeometry width="50" height="50" relative="1" as="geometry">
            <mxPoint x="180" y="360" as="sourcePoint" />
            <mxPoint x="260" y="200" as="targetPoint" />
          </mxGeometry>
        </mxCell>
        <mxCell id="AwGR9FeKWVJa82GFh3xE-52" value="" style="group;rotation=-180;" vertex="1" connectable="0" parent="1">
          <mxGeometry x="121" y="550" width="293" height="240" as="geometry" />
        </mxCell>
        <mxCell id="AwGR9FeKWVJa82GFh3xE-37" value="" style="ellipse;whiteSpace=wrap;html=1;aspect=fixed;rotation=-540;movable=1;resizable=1;rotatable=1;deletable=1;editable=1;locked=0;connectable=1;container=0;fillColor=#FFFFFF;" vertex="1" parent="AwGR9FeKWVJa82GFh3xE-52">
          <mxGeometry x="253" width="40" height="40" as="geometry" />
        </mxCell>
        <mxCell id="AwGR9FeKWVJa82GFh3xE-38" value="" style="whiteSpace=wrap;html=1;aspect=fixed;rotation=-540;movable=1;resizable=1;rotatable=1;deletable=1;editable=1;locked=0;connectable=1;container=0;" vertex="1" parent="AwGR9FeKWVJa82GFh3xE-52">
          <mxGeometry x="200" y="200" width="40" height="40" as="geometry" />
        </mxCell>
        <mxCell id="AwGR9FeKWVJa82GFh3xE-39" value="" style="whiteSpace=wrap;html=1;aspect=fixed;rotation=-540;movable=1;resizable=1;rotatable=1;deletable=1;editable=1;locked=0;connectable=1;container=0;" vertex="1" parent="AwGR9FeKWVJa82GFh3xE-52">
          <mxGeometry x="120" y="200" width="40" height="40" as="geometry" />
        </mxCell>
        <mxCell id="AwGR9FeKWVJa82GFh3xE-40" value="" style="ellipse;whiteSpace=wrap;html=1;aspect=fixed;rotation=-540;movable=1;resizable=1;rotatable=1;deletable=1;editable=1;locked=0;connectable=1;container=0;fillColor=#FFFFFF;" vertex="1" parent="AwGR9FeKWVJa82GFh3xE-52">
          <mxGeometry x="160" width="40" height="40" as="geometry" />
        </mxCell>
        <mxCell id="AwGR9FeKWVJa82GFh3xE-41" value="" style="ellipse;whiteSpace=wrap;html=1;aspect=fixed;rotation=-540;movable=1;resizable=1;rotatable=1;deletable=1;editable=1;locked=0;connectable=1;container=0;fillColor=#FFFFFF;" vertex="1" parent="AwGR9FeKWVJa82GFh3xE-52">
          <mxGeometry x="80" width="40" height="40" as="geometry" />
        </mxCell>
        <mxCell id="AwGR9FeKWVJa82GFh3xE-42" value="" style="endArrow=none;html=1;rounded=0;entryX=0.5;entryY=1;entryDx=0;entryDy=0;exitX=0.5;exitY=0;exitDx=0;exitDy=0;movable=1;resizable=1;rotatable=1;deletable=1;editable=1;locked=0;connectable=1;" edge="1" parent="AwGR9FeKWVJa82GFh3xE-52" source="AwGR9FeKWVJa82GFh3xE-37" target="AwGR9FeKWVJa82GFh3xE-38">
          <mxGeometry width="50" height="50" relative="1" as="geometry">
            <mxPoint x="60" y="60" as="sourcePoint" />
            <mxPoint x="10" y="110" as="targetPoint" />
          </mxGeometry>
        </mxCell>
        <mxCell id="AwGR9FeKWVJa82GFh3xE-43" value="" style="ellipse;whiteSpace=wrap;html=1;aspect=fixed;rotation=-540;movable=1;resizable=1;rotatable=1;deletable=1;editable=1;locked=0;connectable=1;container=0;strokeColor=#000000;fillColor=#FFFFFF;" vertex="1" parent="AwGR9FeKWVJa82GFh3xE-52">
          <mxGeometry width="40" height="40" as="geometry" />
        </mxCell>
        <mxCell id="AwGR9FeKWVJa82GFh3xE-44" value="" style="whiteSpace=wrap;html=1;aspect=fixed;rotation=-540;movable=1;resizable=1;rotatable=1;deletable=1;editable=1;locked=0;connectable=1;container=0;" vertex="1" parent="AwGR9FeKWVJa82GFh3xE-52">
          <mxGeometry x="40" y="200" width="40" height="40" as="geometry" />
        </mxCell>
        <mxCell id="AwGR9FeKWVJa82GFh3xE-45" value="" style="endArrow=none;html=1;rounded=0;entryX=0.5;entryY=1;entryDx=0;entryDy=0;exitX=0.5;exitY=0;exitDx=0;exitDy=0;movable=1;resizable=1;rotatable=1;deletable=1;editable=1;locked=0;connectable=1;" edge="1" parent="AwGR9FeKWVJa82GFh3xE-52" source="AwGR9FeKWVJa82GFh3xE-40" target="AwGR9FeKWVJa82GFh3xE-38">
          <mxGeometry width="50" height="50" relative="1" as="geometry">
            <mxPoint x="240" y="30" as="sourcePoint" />
            <mxPoint x="150" y="190" as="targetPoint" />
          </mxGeometry>
        </mxCell>
        <mxCell id="AwGR9FeKWVJa82GFh3xE-46" value="" style="endArrow=none;html=1;rounded=0;entryX=0.5;entryY=1;entryDx=0;entryDy=0;exitX=0.5;exitY=0;exitDx=0;exitDy=0;movable=1;resizable=1;rotatable=1;deletable=1;editable=1;locked=0;connectable=1;" edge="1" parent="AwGR9FeKWVJa82GFh3xE-52" source="AwGR9FeKWVJa82GFh3xE-43" target="AwGR9FeKWVJa82GFh3xE-38">
          <mxGeometry width="50" height="50" relative="1" as="geometry">
            <mxPoint x="230" y="20" as="sourcePoint" />
            <mxPoint x="140" y="180" as="targetPoint" />
          </mxGeometry>
        </mxCell>
        <mxCell id="AwGR9FeKWVJa82GFh3xE-47" value="" style="endArrow=none;html=1;rounded=0;entryX=0.5;entryY=1;entryDx=0;entryDy=0;exitX=0.5;exitY=0;exitDx=0;exitDy=0;movable=1;resizable=1;rotatable=1;deletable=1;editable=1;locked=0;connectable=1;" edge="1" parent="AwGR9FeKWVJa82GFh3xE-52" source="AwGR9FeKWVJa82GFh3xE-37" target="AwGR9FeKWVJa82GFh3xE-39">
          <mxGeometry width="50" height="50" relative="1" as="geometry">
            <mxPoint x="220" y="10" as="sourcePoint" />
            <mxPoint x="130" y="170" as="targetPoint" />
          </mxGeometry>
        </mxCell>
        <mxCell id="AwGR9FeKWVJa82GFh3xE-48" value="" style="endArrow=none;html=1;rounded=0;entryX=0.5;entryY=1;entryDx=0;entryDy=0;exitX=0.5;exitY=0;exitDx=0;exitDy=0;movable=1;resizable=1;rotatable=1;deletable=1;editable=1;locked=0;connectable=1;" edge="1" parent="AwGR9FeKWVJa82GFh3xE-52" source="AwGR9FeKWVJa82GFh3xE-41" target="AwGR9FeKWVJa82GFh3xE-39">
          <mxGeometry width="50" height="50" relative="1" as="geometry">
            <mxPoint x="210" as="sourcePoint" />
            <mxPoint x="120" y="160" as="targetPoint" />
          </mxGeometry>
        </mxCell>
        <mxCell id="AwGR9FeKWVJa82GFh3xE-49" value="" style="endArrow=none;html=1;rounded=0;entryX=0.5;entryY=1;entryDx=0;entryDy=0;exitX=0.5;exitY=0;exitDx=0;exitDy=0;movable=1;resizable=1;rotatable=1;deletable=1;editable=1;locked=0;connectable=1;" edge="1" parent="AwGR9FeKWVJa82GFh3xE-52" source="AwGR9FeKWVJa82GFh3xE-40" target="AwGR9FeKWVJa82GFh3xE-44">
          <mxGeometry width="50" height="50" relative="1" as="geometry">
            <mxPoint x="200" y="-10" as="sourcePoint" />
            <mxPoint x="110" y="150" as="targetPoint" />
          </mxGeometry>
        </mxCell>
        <mxCell id="AwGR9FeKWVJa82GFh3xE-50" value="" style="endArrow=none;html=1;rounded=0;entryX=0.5;entryY=1;entryDx=0;entryDy=0;exitX=0.5;exitY=0;exitDx=0;exitDy=0;movable=1;resizable=1;rotatable=1;deletable=1;editable=1;locked=0;connectable=1;" edge="1" parent="AwGR9FeKWVJa82GFh3xE-52" source="AwGR9FeKWVJa82GFh3xE-41" target="AwGR9FeKWVJa82GFh3xE-44">
          <mxGeometry width="50" height="50" relative="1" as="geometry">
            <mxPoint x="190" y="-20" as="sourcePoint" />
            <mxPoint x="100" y="140" as="targetPoint" />
          </mxGeometry>
        </mxCell>
        <mxCell id="AwGR9FeKWVJa82GFh3xE-51" value="" style="endArrow=none;html=1;rounded=0;entryX=0.5;entryY=1;entryDx=0;entryDy=0;exitX=0.5;exitY=0;exitDx=0;exitDy=0;movable=1;resizable=1;rotatable=1;deletable=1;editable=1;locked=0;connectable=1;" edge="1" parent="AwGR9FeKWVJa82GFh3xE-52" source="AwGR9FeKWVJa82GFh3xE-43" target="AwGR9FeKWVJa82GFh3xE-44">
          <mxGeometry width="50" height="50" relative="1" as="geometry">
            <mxPoint x="180" y="-30" as="sourcePoint" />
            <mxPoint x="90" y="130" as="targetPoint" />
          </mxGeometry>
        </mxCell>
        <mxCell id="AwGR9FeKWVJa82GFh3xE-54" value="" style="whiteSpace=wrap;html=1;aspect=fixed;rotation=-540;movable=1;resizable=1;rotatable=1;deletable=1;editable=1;locked=0;connectable=1;container=0;" vertex="1" parent="1">
          <mxGeometry x="120" y="450" width="40" height="40" as="geometry" />
        </mxCell>
        <mxCell id="AwGR9FeKWVJa82GFh3xE-55" value="" style="endArrow=none;html=1;rounded=0;entryX=0.5;entryY=1;entryDx=0;entryDy=0;exitX=0.5;exitY=1;exitDx=0;exitDy=0;" edge="1" parent="1" source="AwGR9FeKWVJa82GFh3xE-54" target="AwGR9FeKWVJa82GFh3xE-1">
          <mxGeometry width="50" height="50" relative="1" as="geometry">
            <mxPoint x="170" y="490" as="sourcePoint" />
            <mxPoint x="220" y="440" as="targetPoint" />
          </mxGeometry>
        </mxCell>
        <mxCell id="AwGR9FeKWVJa82GFh3xE-56" value="" style="endArrow=none;html=1;rounded=0;entryX=0.5;entryY=0;entryDx=0;entryDy=0;exitX=0.5;exitY=1;exitDx=0;exitDy=0;" edge="1" parent="1" source="AwGR9FeKWVJa82GFh3xE-43" target="AwGR9FeKWVJa82GFh3xE-54">
          <mxGeometry width="50" height="50" relative="1" as="geometry">
            <mxPoint x="260" y="540" as="sourcePoint" />
            <mxPoint x="260" y="470" as="targetPoint" />
          </mxGeometry>
        </mxCell>
        <mxCell id="AwGR9FeKWVJa82GFh3xE-68" value="" style="ellipse;whiteSpace=wrap;html=1;aspect=fixed;rotation=-540;movable=1;resizable=1;rotatable=1;deletable=1;editable=1;locked=0;connectable=1;container=0;strokeColor=#000000;fillColor=#000000;" vertex="1" parent="1">
          <mxGeometry x="40" y="450" width="40" height="40" as="geometry" />
        </mxCell>
        <mxCell id="AwGR9FeKWVJa82GFh3xE-69" value="" style="endArrow=none;html=1;rounded=0;exitX=0;exitY=0.5;exitDx=0;exitDy=0;entryX=1;entryY=0.5;entryDx=0;entryDy=0;" edge="1" parent="1" source="AwGR9FeKWVJa82GFh3xE-68" target="AwGR9FeKWVJa82GFh3xE-54">
          <mxGeometry width="50" height="50" relative="1" as="geometry">
            <mxPoint x="210" y="450" as="sourcePoint" />
            <mxPoint x="260" y="400" as="targetPoint" />
          </mxGeometry>
        </mxCell>
        <mxCell id="AwGR9FeKWVJa82GFh3xE-70" value="" style="whiteSpace=wrap;html=1;aspect=fixed;rotation=-540;movable=1;resizable=1;rotatable=1;deletable=1;editable=1;locked=0;connectable=1;container=0;" vertex="1" parent="1">
          <mxGeometry x="260" y="450" width="40" height="40" as="geometry" />
        </mxCell>
        <mxCell id="AwGR9FeKWVJa82GFh3xE-71" value="" style="endArrow=none;html=1;rounded=0;exitX=0.5;exitY=1;exitDx=0;exitDy=0;entryX=0.5;entryY=1;entryDx=0;entryDy=0;" edge="1" parent="1" source="AwGR9FeKWVJa82GFh3xE-70" target="AwGR9FeKWVJa82GFh3xE-3">
          <mxGeometry width="50" height="50" relative="1" as="geometry">
            <mxPoint x="310" y="490" as="sourcePoint" />
            <mxPoint x="330" y="420" as="targetPoint" />
          </mxGeometry>
        </mxCell>
        <mxCell id="AwGR9FeKWVJa82GFh3xE-72" value="" style="endArrow=none;html=1;rounded=0;entryX=0.5;entryY=0;entryDx=0;entryDy=0;exitX=0.5;exitY=1;exitDx=0;exitDy=0;" edge="1" parent="1" target="AwGR9FeKWVJa82GFh3xE-70" source="AwGR9FeKWVJa82GFh3xE-41">
          <mxGeometry width="50" height="50" relative="1" as="geometry">
            <mxPoint x="281" y="550" as="sourcePoint" />
            <mxPoint x="400" y="470" as="targetPoint" />
          </mxGeometry>
        </mxCell>
        <mxCell id="AwGR9FeKWVJa82GFh3xE-73" value="" style="ellipse;whiteSpace=wrap;html=1;aspect=fixed;rotation=-540;movable=1;resizable=1;rotatable=1;deletable=1;editable=1;locked=0;connectable=1;container=0;strokeColor=#000000;fillColor=#000000;" vertex="1" parent="1">
          <mxGeometry x="180" y="450" width="40" height="40" as="geometry" />
        </mxCell>
        <mxCell id="AwGR9FeKWVJa82GFh3xE-74" value="" style="endArrow=none;html=1;rounded=0;exitX=0;exitY=0.5;exitDx=0;exitDy=0;entryX=1;entryY=0.5;entryDx=0;entryDy=0;" edge="1" parent="1" source="AwGR9FeKWVJa82GFh3xE-73" target="AwGR9FeKWVJa82GFh3xE-70">
          <mxGeometry width="50" height="50" relative="1" as="geometry">
            <mxPoint x="350" y="450" as="sourcePoint" />
            <mxPoint x="400" y="400" as="targetPoint" />
          </mxGeometry>
        </mxCell>
        <mxCell id="AwGR9FeKWVJa82GFh3xE-83" value="" style="whiteSpace=wrap;html=1;aspect=fixed;rotation=-540;movable=1;resizable=1;rotatable=1;deletable=1;editable=1;locked=0;connectable=1;container=0;" vertex="1" parent="1">
          <mxGeometry x="400" y="450" width="40" height="40" as="geometry" />
        </mxCell>
        <mxCell id="AwGR9FeKWVJa82GFh3xE-84" value="" style="ellipse;whiteSpace=wrap;html=1;aspect=fixed;rotation=-540;movable=1;resizable=1;rotatable=1;deletable=1;editable=1;locked=0;connectable=1;container=0;strokeColor=#000000;fillColor=#000000;" vertex="1" parent="1">
          <mxGeometry x="320" y="450" width="40" height="40" as="geometry" />
        </mxCell>
        <mxCell id="AwGR9FeKWVJa82GFh3xE-85" value="" style="endArrow=none;html=1;rounded=0;exitX=0;exitY=0.5;exitDx=0;exitDy=0;entryX=1;entryY=0.5;entryDx=0;entryDy=0;" edge="1" parent="1" source="AwGR9FeKWVJa82GFh3xE-84" target="AwGR9FeKWVJa82GFh3xE-83">
          <mxGeometry width="50" height="50" relative="1" as="geometry">
            <mxPoint x="490" y="450" as="sourcePoint" />
            <mxPoint x="540" y="400" as="targetPoint" />
          </mxGeometry>
        </mxCell>
        <mxCell id="AwGR9FeKWVJa82GFh3xE-86" value="" style="endArrow=none;html=1;rounded=0;exitX=0.5;exitY=1;exitDx=0;exitDy=0;entryX=0.5;entryY=1;entryDx=0;entryDy=0;" edge="1" parent="1" source="AwGR9FeKWVJa82GFh3xE-83" target="AwGR9FeKWVJa82GFh3xE-5">
          <mxGeometry width="50" height="50" relative="1" as="geometry">
            <mxPoint x="520" y="520" as="sourcePoint" />
            <mxPoint x="520" y="450" as="targetPoint" />
          </mxGeometry>
        </mxCell>
        <mxCell id="AwGR9FeKWVJa82GFh3xE-87" value="" style="endArrow=none;html=1;rounded=0;exitX=0.5;exitY=1;exitDx=0;exitDy=0;entryX=0.5;entryY=0;entryDx=0;entryDy=0;" edge="1" parent="1" source="AwGR9FeKWVJa82GFh3xE-40" target="AwGR9FeKWVJa82GFh3xE-83">
          <mxGeometry width="50" height="50" relative="1" as="geometry">
            <mxPoint x="520" y="530" as="sourcePoint" />
            <mxPoint x="520" y="460" as="targetPoint" />
          </mxGeometry>
        </mxCell>
        <mxCell id="AwGR9FeKWVJa82GFh3xE-88" value="" style="whiteSpace=wrap;html=1;aspect=fixed;rotation=-540;movable=1;resizable=1;rotatable=1;deletable=1;editable=1;locked=0;connectable=1;container=0;" vertex="1" parent="1">
          <mxGeometry x="540" y="450" width="40" height="40" as="geometry" />
        </mxCell>
        <mxCell id="AwGR9FeKWVJa82GFh3xE-89" value="" style="ellipse;whiteSpace=wrap;html=1;aspect=fixed;rotation=-540;movable=1;resizable=1;rotatable=1;deletable=1;editable=1;locked=0;connectable=1;container=0;strokeColor=#000000;fillColor=#000000;" vertex="1" parent="1">
          <mxGeometry x="460" y="450" width="40" height="40" as="geometry" />
        </mxCell>
        <mxCell id="AwGR9FeKWVJa82GFh3xE-90" value="" style="endArrow=none;html=1;rounded=0;exitX=0;exitY=0.5;exitDx=0;exitDy=0;entryX=1;entryY=0.5;entryDx=0;entryDy=0;" edge="1" parent="1" source="AwGR9FeKWVJa82GFh3xE-89" target="AwGR9FeKWVJa82GFh3xE-88">
          <mxGeometry width="50" height="50" relative="1" as="geometry">
            <mxPoint x="630" y="450" as="sourcePoint" />
            <mxPoint x="680" y="400" as="targetPoint" />
          </mxGeometry>
        </mxCell>
        <mxCell id="AwGR9FeKWVJa82GFh3xE-91" value="" style="endArrow=none;html=1;rounded=0;exitX=0.5;exitY=1;exitDx=0;exitDy=0;entryX=0.5;entryY=1;entryDx=0;entryDy=0;" edge="1" parent="1" source="AwGR9FeKWVJa82GFh3xE-88" target="AwGR9FeKWVJa82GFh3xE-7">
          <mxGeometry width="50" height="50" relative="1" as="geometry">
            <mxPoint x="650" y="600" as="sourcePoint" />
            <mxPoint x="650" y="530" as="targetPoint" />
          </mxGeometry>
        </mxCell>
        <mxCell id="AwGR9FeKWVJa82GFh3xE-92" value="" style="endArrow=none;html=1;rounded=0;exitX=0.5;exitY=1;exitDx=0;exitDy=0;entryX=0.5;entryY=0;entryDx=0;entryDy=0;" edge="1" parent="1" source="AwGR9FeKWVJa82GFh3xE-37" target="AwGR9FeKWVJa82GFh3xE-88">
          <mxGeometry width="50" height="50" relative="1" as="geometry">
            <mxPoint x="650" y="600" as="sourcePoint" />
            <mxPoint x="650" y="530" as="targetPoint" />
          </mxGeometry>
        </mxCell>
      </root>
    </mxGraphModel>
  </diagram>
</mxfile>
